Coordinates
version=1
nRows=17
nColumns=40
inDegrees=yes

Units are S.I. units (second, meters, Newtons, ...)
Angles are in degrees.

endheader
time	pelvis_tilt	pelvis_list	pelvis_rotation	pelvis_tx	pelvis_ty	pelvis_tz	hip_flexion_r	hip_adduction_r	hip_rotation_r	knee_angle_r	knee_angle_r_beta	ankle_angle_r	subtalar_angle_r	mtp_angle_r	hip_flexion_l	hip_adduction_l	hip_rotation_l	knee_angle_l	knee_angle_l_beta	ankle_angle_l	subtalar_angle_l	mtp_angle_l	lumbar_extension	lumbar_bending	lumbar_rotation	arm_flex_r	arm_add_r	arm_rot_r	elbow_flex_r	pro_sup_r	wrist_flex_r	wrist_dev_r	arm_flex_l	arm_add_l	arm_rot_l	elbow_flex_l	pro_sup_l	wrist_flex_l	wrist_dev_l
     24.11000000	     -7.81401949	     -1.11684948	     12.92235547	      0.91520970	      0.91397742	      0.38991838	      6.06392332	     -9.67400810	    -14.28621438	     28.98936826	     28.98936826	     15.63049997	     -9.34594189	     -7.27826462	     23.43475222	      3.49003699	      4.19561280	     29.34785437	     29.34785437	     16.00413716	    -16.37296198	      9.86307761	     -8.83548179	      6.46258909	      8.27035931	     41.24945547	    -21.63947701	     -9.39259449	     68.11490327	     45.17103308	      0.00000000	      0.00000000	    -12.52873669	    -11.86212607	     19.79598289	     32.61616966	     45.11719539	      0.00000000	      0.00000000
     24.13485714	     -7.85150546	     -1.01639576	     12.51480496	      0.91311889	      0.91279514	      0.38721797	      7.25540225	    -10.31003097	    -13.46809642	     31.39107349	     31.39107349	     15.25310706	     -9.94975779	     -8.12495309	     23.47289943	      3.71439636	      4.02617311	     29.86507560	     29.86507560	     16.39223729	    -16.78692529	      9.82346670	     -8.87010534	      6.54161653	      7.81097944	     37.48773948	    -21.05226961	     -9.40167203	     65.82651587	     45.23435654	      0.00000000	      0.00000000	     -9.34467969	    -11.89276668	     19.54377268	     33.61865148	     45.20162724	      0.00000000	      0.00000000
     24.15971429	     -7.89841256	     -0.97990749	     12.06160842	      0.91087770	      0.91154239	      0.38458031	      8.68242120	    -10.86218784	    -12.45315172	     34.11324292	     34.11324292	     14.38836419	    -10.96345431	     -9.40905754	     23.51340655	      3.86509594	      3.86841845	     30.35774193	     30.35774193	     16.84351657	    -17.22294285	      9.91275993	     -8.85485750	      6.66254658	      7.77199448	     33.61269061	    -20.77273503	     -9.83906376	     62.80672822	     45.33916644	      0.00000000	      0.00000000	     -5.67034344	    -11.89319591	     19.24697004	     34.77745684	     45.29919602	      0.00000000	      0.00000000
     24.18457143	     -7.85606567	     -0.88468805	     11.67738873	      0.90858403	      0.91034000	      0.38196106	     10.18043484	    -11.44142918	    -11.33188507	     37.16887081	     37.16887081	     13.18956114	    -12.23242409	    -10.98283336	     23.49499777	      4.06767677	      3.71228621	     30.94693409	     30.94693409	     17.36876617	    -17.53802188	     10.01504144	     -9.00529895	      6.71235803	      7.70584521	     29.62214787	    -20.28613433	    -10.38990752	     59.47007596	     45.45881627	      0.00000000	      0.00000000	     -1.80342085	    -12.06573736	     18.93681781	     35.88254445	     45.39805952	      0.00000000	      0.00000000
     24.20942857	     -7.72205442	     -0.89778494	     11.34273967	      0.90633223	      0.90944086	      0.37956741	     11.52109126	    -11.82482266	    -10.28693830	     39.84777078	     39.84777078	      9.55928675	    -15.22709263	    -17.89513129	     23.40669555	      4.15384346	      3.68079823	     31.58527459	     31.58527459	     18.44343466	    -17.67004382	     11.53123050	     -9.11738063	      6.88176471	      7.87025580	     26.60915437	    -18.80105073	    -14.52280829	     53.22342484	     45.82917187	      0.00000000	      0.00000000	      2.88281726	    -11.98927593	     19.63015528	     35.52228200	     45.41253415	      0.00000000	      0.00000000
     24.23428571	     -7.70140925	     -0.77552443	     10.98857503	      0.90388177	      0.90829706	      0.37746049	     13.56375470	    -12.46090514	     -9.17577656	     43.76591299	     43.76591299	      7.98140118	    -16.26592296	    -18.34923907	     23.34488593	      4.33710245	      3.46007357	     32.00864960	     32.00864960	     18.84464955	    -17.88644923	     11.40064649	     -9.31157490	      6.84356700	      7.64574065	     22.70042454	    -18.31426891	    -14.52384329	     50.54912183	     45.90273224	      0.00000000	      0.00000000	      6.75709473	    -12.27532926	     19.18059229	     37.08064283	     45.52561502	      0.00000000	      0.00000000
     24.25914286	     -7.64069651	     -0.74273068	     10.66311664	      0.90148512	      0.90738407	      0.37582683	     15.70869290	    -12.88398854	     -8.04218879	     47.76715151	     47.76715151	      6.06915569	    -17.39117320	    -18.41255798	     23.21357988	      4.39601115	      3.31696983	     32.34405929	     32.34405929	     19.26060739	    -18.02117358	     11.35302645	     -9.50312594	      6.85848863	      7.74622941	     18.80012550	    -17.93006792	    -14.71028261	     47.31445959	     46.00583618	      0.00000000	      0.00000000	     10.84183588	    -12.46297332	     18.71519879	     38.69801261	     45.64098968	      0.00000000	      0.00000000
     24.28400000	     -7.54393273	     -0.72814204	     10.37835265	      0.89914435	      0.90680994	      0.37461018	     17.89160933	    -13.22090468	     -7.03299678	     51.71576747	     51.71576747	      4.17850412	    -18.13422194	    -17.62781009	     22.99849391	      4.38633850	      3.13416481	     32.57054927	     32.57054927	     19.64407938	    -18.06368134	     11.36254591	     -9.72185993	      6.88083002	      7.82205174	     15.06739937	    -17.38647629	    -14.96573746	     43.93468992	     46.11927497	      0.00000000	      0.00000000	     14.98441818	    -12.65303370	     18.24887969	     40.31429127	     45.75415375	      0.00000000	      0.00000000
     24.30885714	     -7.42389659	     -0.79711383	     10.10287751	      0.89689893	      0.90665313	      0.37400143	     20.10899977	    -13.32520907	     -6.10393244	     55.47483091	     55.47483091	      2.72909949	    -18.50809941	    -14.98496771	     22.68533389	      4.24067250	      2.99128710	     32.62559123	     32.62559123	     19.97719938	    -18.07583812	     11.43184900	     -9.95792289	      6.93216716	      8.07261722	     11.45009525	    -16.79015417	    -15.37967218	     40.16533666	     46.25696791	      0.00000000	      0.00000000	     19.19457366	    -12.77038459	     17.78547837	     42.03415794	     45.86688836	      0.00000000	      0.00000000
     24.33371429	     -7.35591067	     -0.85933976	      9.75824242	      0.89469291	      0.90677195	      0.37412003	     22.47260925	    -13.22279453	     -5.09297980	     58.96519944	     58.96519944	      1.91943896	    -18.70397268	    -10.67982182	     22.33695900	      4.03171376	      2.75829170	     32.49864997	     32.49864997	     20.21995088	    -18.01627148	     11.40527004	    -10.09837600	      6.86557323	      8.20666490	      8.01141483	    -16.00048624	    -15.71516887	     36.80369603	     46.37720781	      0.00000000	      0.00000000	     23.17659075	    -13.00447738	     17.22627632	     43.90306391	     45.98538563	      0.00000000	      0.00000000
     24.35857143	     -7.32239694	     -0.94033427	      9.38239154	      0.89254102	      0.90735703	      0.37483025	     24.79106013	    -12.96028073	     -4.21825423	     61.80149406	     61.80149406	      1.73515677	    -18.80001150	     -5.62632068	     21.91309801	      3.74135491	      2.45346573	     32.14224620	     32.14224620	     20.29250101	    -17.92711924	     11.25534129	    -10.28363821	      6.86749457	      8.20964068	      4.59311112	    -15.08489076	    -15.86967121	     34.08817942	     46.46246952	      0.00000000	      0.00000000	     26.99050655	    -13.37887024	     16.47184709	     46.04191296	     46.12069445	      0.00000000	      0.00000000
     24.38342857	     -7.21102279	     -1.25748044	      8.97678009	      0.89050144	      0.90851970	      0.37649018	     27.00771462	    -12.14602998	     -3.45073303	     64.01831501	     64.01831501	      3.35892126	    -18.57110834	      3.46632918	     21.37929367	      3.08730983	      2.13046111	     31.64568888	     31.64568888	     20.11063679	    -17.71054549	     10.46177926	    -10.58205823	      7.07100328	      7.49411921	      1.76223841	    -13.85382918	    -16.05209795	     32.11256596	     46.50881772	      0.00000000	      0.00000000	     30.18758454	    -14.34151402	     15.14473689	     48.39167737	     46.30435695	      0.00000000	      0.00000000
     24.40828571	     -7.27154028	     -1.45348463	      8.40789803	      0.88855433	      0.90993640	      0.37861416	     29.01615269	    -11.61366060	     -3.05884373	     64.83855217	     64.83855217	      3.48377360	    -18.67959221	      5.30848640	     20.82811642	      2.52862484	      1.64494349	     30.82740646	     30.82740646	     19.83715062	    -17.54540951	      9.92391688	    -10.75052442	      7.10007801	      7.40872297	     -1.78330183	    -13.00732036	    -15.45279471	     31.28386189	     46.45108445	      0.00000000	      0.00000000	     33.40201436	    -14.91719416	     13.62697807	     51.06812960	     46.50561385	      0.00000000	      0.00000000
     24.43314286	     -7.40238166	     -1.65285838	      7.65913905	      0.88673521	      0.91166790	      0.38156754	     30.83796710	    -10.93851128	     -2.75891399	     64.49482277	     64.49482277	      3.70768956	    -18.71165179	      5.16010381	     20.23982881	      1.89537580	      1.03916123	     29.84944771	     29.84944771	     19.69355850	    -17.30963205	     10.01192594	    -10.86198638	      7.07877436	      7.50315752	     -4.99660401	    -12.11250472	    -15.12074696	     30.12271899	     46.44488536	      0.00000000	      0.00000000	     36.76132537	    -15.58350856	     12.70284491	     53.10815581	     46.63960954	      0.00000000	      0.00000000
     24.45800000	     -7.66200816	     -2.05758536	      6.84882186	      0.88496260	      0.91344943	      0.38528800	     32.48305990	     -9.91698274	     -2.67146649	     62.96718766	     62.96718766	      4.46252568	    -18.43084198	      4.76116494	     19.82826254	      1.01817693	      0.45424445	     28.90439496	     28.90439496	     19.53887323	    -17.12467960	     10.17483495	    -10.80625361	      7.33495773	      7.05819076	     -7.64835806	    -11.25017324	    -14.95403179	     29.31795772	     46.44096971	      0.00000000	      0.00000000	     39.87997147	    -16.97691513	     11.80321708	     54.44195841	     46.75566214	      0.00000000	      0.00000000
     24.48285714	     -7.76551948	     -2.40079590	      5.74392211	      0.88360059	      0.91569865	      0.38993761	     33.47713578	     -8.56257997	     -2.29025477	     60.02920256	     60.02920256	      5.18644981	    -18.01923214	      2.62950199	     18.98575952	      0.04817683	     -0.44971220	     27.59478192	     27.59478192	     19.21663636	    -16.78017095	     10.02450038	    -11.16588206	      7.41417630	      8.28121151	    -11.18097174	    -10.56128565	    -14.39057443	     29.02656793	     46.37465416	      0.00000000	      0.00000000	     42.77214067	    -16.77961182	     10.39631568	     57.97703455	     46.94254772	      0.00000000	      0.00000000
     24.50771429	     -8.14025623	     -2.70247415	      4.61837047	      0.88237691	      0.91727811	      0.39491401	     33.90683736	     -7.60556419	     -2.61475296	     55.09501569	     55.09501569	      2.82970100	    -18.07378085	     -9.93774712	     18.50026086	     -0.84438766	     -1.37692632	     26.44660236	     26.44660236	     18.40369732	    -16.84159456	      8.69185452	    -11.11882169	      7.48257917	      7.96271818	    -14.97660631	    -10.79656555	     -9.47664956	     32.93930034	     45.83168204	      0.00000000	      0.00000000	     44.57112989	    -17.90500332	      7.24758082	     61.42012199	     47.24404345	      0.00000000	      0.00000000
